<svg width="50" height="50" viewBox="0 0 50 50" fill="none" xmlns="http://www.w3.org/2000/svg">
<path d="M50 25C50 11.1929 38.8071 0 25 0C11.1929 0 0 11.1929 0 25C0 38.8071 11.1929 50 25 50C38.8071 50 50 38.8071 50 25Z" fill="#D11243"/>
<path d="M34.8365 14H16.2637C14.4558 14 13 15.4675 13 17.2637V29.6143C13 31.4222 14.4675 32.878 16.2637 32.878H34.8365C36.6444 32.878 38.1002 31.4105 38.1002 29.6143V17.2637C38.1119 15.4558 36.6444 14 34.8365 14ZM36.9027 28.8277C36.9027 29.9665 35.9753 30.8939 34.8365 30.8939H17.0855C15.9233 30.8939 14.9841 29.9665 14.9841 28.8042V16.9233C14.9841 16.0193 15.7237 15.2797 16.6277 15.2797H35.2356C36.1514 15.2797 36.9027 16.0193 36.9027 16.9468V28.8277Z" fill="white"/>
<path d="M18.2712 32.4672V38.1024C18.2712 38.9008 19.2339 39.2999 19.7974 38.7364L24.4465 32.3381L18.2712 32.4672Z" fill="white"/>
</svg>
