<svg width="24" height="24" viewBox="0 0 24 24" fill="none" xmlns="http://www.w3.org/2000/svg">
<g clip-path="url(#clip0_2901_10134)">
<path d="M7.36997 18.74C7.14997 19.68 6.34997 20.4 5.32997 20.4C4.25997 20.4 3.40997 19.6 3.25997 18.57L1.71997 18.51C1.88997 20.18 3.28997 21.49 4.99997 21.49C6.62997 21.49 7.96997 20.32 8.25997 18.78L7.36997 18.74Z" fill="#4A4F54"/>
<path d="M5.24002 9.17004L1.46002 9.22004C0.880023 9.23004 0.390023 8.79004 0.340023 8.21004L-0.0199772 4.17004C-0.0799772 3.53004 0.430023 2.97004 1.07002 2.96004L5.36002 2.90004C6.00002 2.89004 6.51002 3.42004 6.49002 4.05004L6.34002 8.10004C6.32002 8.69004 5.84002 9.16004 5.24002 9.17004Z" fill="#B91F46"/>
<path d="M14.13 6.32H18.79C19.25 6.32 19.61 5.95 19.61 5.5V5.05C19.61 4.06 18.81 3.25 17.81 3.25C17.49 3.25 17.22 3.48 17.16 3.79L16.99 4.72C16.95 4.91 16.8 5.05 16.61 5.07L13.44 5.42C13.29 5.44 13.2 5.59 13.26 5.73C13.4 6.09 13.75 6.32 14.13 6.32Z" fill="#B91F46"/>
<path d="M14.3301 17.54L14.7201 10.49C14.7201 10.49 14.7901 7.25002 17.6201 7.12002C18.0701 7.10002 18.4801 7.38002 18.5901 7.82002L20.0201 13.32C20.1101 13.63 19.8601 13.71 19.7701 13.74C19.6001 13.8 19.4201 13.7 19.3601 13.53L17.5301 8.56002C17.4801 8.41002 17.3401 8.32002 17.1801 8.35002C16.6201 8.44002 15.9201 9.37002 15.8801 10.81L15.9001 17.54H14.3301Z" fill="#4A4F54"/>
<path d="M20.7 14.86C18.87 14.86 17.38 16.35 17.38 18.18C17.38 20.01 18.87 21.5 20.7 21.5C22.53 21.5 24.02 20.01 24.02 18.18C24.02 16.35 22.53 14.86 20.7 14.86ZM21.03 20.41C19.85 20.41 18.9 19.46 18.9 18.28C18.9 17.1 19.85 16.15 21.03 16.15C22.21 16.15 23.16 17.1 23.16 18.28C23.16 19.46 22.2 20.41 21.03 20.41Z" fill="#4A4F54"/>
<path d="M16.73 17.23L2.51997 16.75C2.32997 16.75 2.18997 16.59 2.18997 16.4C2.18997 15.12 2.80997 14.2 3.22997 13.72C3.52997 13.37 3.96997 13.18 4.76997 13.18H9.18997C9.28997 13.18 9.35997 13.27 9.32997 13.37C8.92997 14.62 9.40997 15.9 9.74997 16.3C9.82997 16.39 9.92997 16.44 10.03 16.38H10.04C10.19 16.29 10.26 16.11 10.21 15.94C9.92997 14.92 10.16 13.97 10.44 13.3C11.15 11.41 11.06 10.64 11.06 10.64C11.06 10.16 10.67 9.77002 10.19 9.77002H3.54997C3.45997 9.77002 3.38997 9.84002 3.38997 9.93002C3.38997 10.14 3.54997 10.52 4.00997 10.56L9.44997 10.93C9.61997 10.94 9.75997 11.08 9.75997 11.25C9.75997 11.51 9.68997 11.84 9.62997 12.13C9.59997 12.2 9.51997 12.33 9.30997 12.33H4.63997C3.49997 12.33 2.42997 12.86 1.75997 13.78C1.15997 14.61 0.839969 15.59 0.679969 16.4C0.519969 17.19 1.10997 17.93 1.91997 17.93H16.29C16.58 17.93 16.83 17.73 16.9 17.46C16.92 17.34 16.84 17.23 16.73 17.23Z" fill="#4A4F54"/>
</g>
<defs>
<clipPath id="clip0_2901_10134">
<rect width="24" height="24" fill="white"/>
</clipPath>
</defs>
</svg>
