<svg width="74" height="26" viewBox="0 0 74 26" fill="none" xmlns="http://www.w3.org/2000/svg">
<path d="M35.4066 23.1909C35.4161 23.2735 35.4034 23.3275 35.3685 23.3561C35.3367 23.3847 35.2827 23.407 35.2064 23.4229C35.1556 23.4324 35.0857 23.4387 34.9967 23.4419C34.9045 23.4451 34.8124 23.4483 34.7139 23.4483C34.6217 23.4483 34.5328 23.4483 34.4406 23.4483C34.3485 23.4483 34.2627 23.4451 34.1801 23.4356C34.0244 23.4197 33.9068 23.3688 33.8337 23.2862C33.7607 23.2036 33.7194 23.0574 33.7098 22.8414C33.6939 22.5046 33.6717 22.1296 33.6494 21.7166C33.624 21.3035 33.5986 20.8904 33.5764 20.4742C33.5541 20.0579 33.5255 19.6512 33.5033 19.2572C33.481 18.8632 33.4588 18.5105 33.4429 18.2086H33.3444C33.2523 18.5391 33.1538 18.8886 33.0426 19.2636C32.9313 19.6385 32.8138 20.0166 32.6899 20.4011C32.5659 20.7856 32.442 21.1637 32.3181 21.5386C32.1942 21.9136 32.0798 22.2599 31.9717 22.584C31.9304 22.692 31.8955 22.7683 31.8669 22.8128C31.8383 22.8573 31.7652 22.8922 31.6508 22.9176C31.5841 22.9335 31.5174 22.9431 31.4475 22.9431C31.3776 22.9431 31.2886 22.9431 31.1806 22.9431H31.1075C31.0344 22.9431 30.9613 22.9431 30.8914 22.9431C30.8215 22.9431 30.7611 22.9335 30.7135 22.9176C30.58 22.8859 30.4783 22.8191 30.4053 22.7206C30.3322 22.6221 30.2654 22.495 30.2083 22.3362C30.1097 22.047 30.0049 21.7356 29.8937 21.3956C29.7825 21.0588 29.6713 20.7093 29.56 20.3502C29.4488 19.9912 29.3408 19.6321 29.2391 19.2699C29.1374 18.9077 29.0358 18.555 28.9373 18.2086H28.8388C28.8133 18.5137 28.7879 18.8664 28.7657 19.2636C28.7403 19.6639 28.7148 20.0802 28.6926 20.5187C28.6704 20.9571 28.6449 21.3988 28.6259 21.8532C28.6068 22.3076 28.5877 22.7397 28.5719 23.1496C28.5719 23.2481 28.5496 23.3148 28.5051 23.3466C28.4606 23.3784 28.3876 23.4038 28.2891 23.4197C28.216 23.4292 28.127 23.4356 28.0285 23.4387C27.93 23.4419 27.8347 23.4451 27.7457 23.4451C27.6536 23.4451 27.5741 23.4451 27.5042 23.4451C27.4343 23.4451 27.3581 23.4356 27.2754 23.4197C27.1611 23.4038 27.0689 23.3625 27.0022 23.2958C26.9355 23.229 26.9037 23.1274 26.9037 22.9875C26.9037 22.7969 26.9132 22.584 26.9355 22.3457C26.9545 22.1074 26.9736 21.8564 26.9895 21.5926C27.0721 20.5377 27.1547 19.5781 27.2373 18.7139C27.3199 17.8496 27.4057 17.0584 27.4979 16.3435C27.5138 16.2291 27.5519 16.1528 27.6091 16.1147C27.6663 16.0766 27.7648 16.0543 27.9046 16.048C27.9936 16.0384 28.0984 16.0352 28.2128 16.0352C28.3272 16.0352 28.432 16.0352 28.521 16.0352C28.6132 16.0352 28.7085 16.0384 28.8102 16.0416C28.9118 16.0448 28.9945 16.0511 29.0517 16.0607C29.2328 16.0766 29.3758 16.1274 29.4838 16.21C29.5918 16.2926 29.6776 16.4293 29.7443 16.6167C29.9763 17.392 30.2051 18.1642 30.437 18.9331C30.669 19.702 30.8914 20.4202 31.1043 21.0874H31.1774C31.3903 20.3884 31.619 19.6385 31.8637 18.8378C32.1052 18.0402 32.3562 17.2077 32.6104 16.3435C32.6422 16.2354 32.6867 16.1623 32.7407 16.121C32.7947 16.0797 32.8773 16.0543 32.9949 16.048C33.1029 16.0384 33.211 16.0352 33.3222 16.0352C33.4334 16.0352 33.5414 16.0352 33.6494 16.0352C33.7416 16.0352 33.821 16.0384 33.8909 16.0416C33.9608 16.0448 34.0339 16.0511 34.107 16.0607C34.3453 16.0766 34.5074 16.1496 34.59 16.2767C34.6726 16.4038 34.7298 16.5754 34.7616 16.7883C34.8601 17.5382 34.9713 18.466 35.0952 19.5686C35.2096 20.6775 35.3144 21.8818 35.4066 23.1909Z" fill="#4C5055"/>
<path d="M39.5213 22.3641C39.7342 22.3641 39.9439 22.3451 40.1504 22.3101C40.3569 22.272 40.5222 22.2307 40.6461 22.1798C40.6969 22.164 40.7446 22.1417 40.7954 22.1195C40.8463 22.0941 40.9035 22.0813 40.967 22.0813C41.0401 22.0813 41.1005 22.1131 41.145 22.1798C41.1894 22.2466 41.2117 22.3228 41.2117 22.415C41.2117 22.7613 41.0242 23.0378 40.6493 23.2475C40.2743 23.4572 39.7691 23.562 39.1368 23.562C38.2376 23.562 37.5226 23.3237 36.992 22.8439C36.4614 22.3641 36.1945 21.6333 36.1945 20.6515C36.1945 20.1717 36.2612 19.7491 36.3915 19.3837C36.5217 19.0151 36.7092 18.7101 36.9539 18.4622C37.1985 18.2144 37.4877 18.0301 37.8245 17.9062C38.1613 17.7822 38.5394 17.7219 38.962 17.7219C39.7119 17.7219 40.2934 17.9538 40.7096 18.4177C41.1259 18.8816 41.3324 19.5489 41.3324 20.4259C41.3324 20.6006 41.3134 20.7341 41.272 20.8294C41.2307 20.9247 41.1418 20.9788 41.002 20.9978C40.7954 21.0137 40.5603 21.0232 40.2934 21.0232C40.0265 21.0232 39.7373 21.0232 39.4259 21.0232C39.2385 21.0232 39.0065 21.0201 38.7364 21.0169C38.4663 21.0137 38.1963 21.0074 37.923 20.9978C37.9135 21.4427 38.0533 21.7827 38.3361 22.0178C38.6252 22.2466 39.0192 22.3641 39.5213 22.3641ZM37.8404 20.0541C37.9802 20.0382 38.12 20.0287 38.2535 20.0287C38.3869 20.0287 38.5235 20.0287 38.6538 20.0287C38.8604 20.0287 39.0574 20.0287 39.248 20.0287C39.4387 20.0287 39.6357 20.0255 39.8422 20.016C39.8422 19.5711 39.7596 19.247 39.5943 19.0469C39.4291 18.8467 39.1813 18.745 38.854 18.745C38.5585 18.745 38.3138 18.8594 38.1264 19.085C37.9357 19.3106 37.8404 19.6347 37.8404 20.0541Z" fill="#4C5055"/>
<path d="M44.2527 18.942C44.0207 18.942 43.7919 18.9706 43.56 19.0277C43.328 19.0849 43.1247 19.1548 42.9435 19.2375C42.845 19.2883 42.7592 19.3105 42.683 19.3105C42.5845 19.3105 42.5019 19.2692 42.4351 19.1866C42.3684 19.104 42.3366 18.996 42.3366 18.8657C42.3366 18.6878 42.3779 18.5384 42.4606 18.4209C42.5432 18.3033 42.6735 18.1953 42.8546 18.0968C43.2835 17.8616 43.8555 17.7409 44.5704 17.7409C45.3616 17.7409 45.9462 17.9188 46.3307 18.2715C46.7152 18.6242 46.9058 19.193 46.9058 19.9715C46.9058 20.3178 46.9027 20.6578 46.8995 20.9946C46.8963 21.3314 46.8931 21.6269 46.8931 21.8811C46.8931 22.1099 46.9376 22.2783 47.0298 22.3863C47.1219 22.4944 47.2617 22.5674 47.4492 22.6088C47.5223 22.6246 47.5763 22.6501 47.6112 22.6818C47.643 22.7136 47.6621 22.7772 47.6621 22.8661C47.6621 23.0472 47.5636 23.2061 47.3729 23.3459C47.1791 23.4857 46.9249 23.5556 46.6135 23.5556C46.3085 23.5556 46.0702 23.5016 45.9018 23.3968C45.7334 23.2887 45.5904 23.1426 45.476 22.9519C45.3044 23.1426 45.0947 23.2887 44.8532 23.3968C44.6117 23.5048 44.3321 23.5556 44.0207 23.5556C43.3534 23.5556 42.8577 23.3904 42.5305 23.0631C42.2064 22.7327 42.0411 22.3228 42.0411 21.8271C42.0411 21.2424 42.2636 20.823 42.7084 20.5656C42.8991 20.4576 43.1215 20.3813 43.3757 20.3369C43.6299 20.2924 43.9317 20.2701 44.2781 20.2701C44.4592 20.2701 44.6435 20.2733 44.8278 20.2828C45.0121 20.2924 45.1709 20.2987 45.3044 20.3083V20.0255C45.3044 19.6378 45.2154 19.3614 45.0375 19.193C44.8595 19.0246 44.599 18.942 44.2527 18.942ZM45.3266 22.2147C45.3171 22.148 45.3107 22.0749 45.3076 21.9923C45.3044 21.9097 45.3012 21.8017 45.3012 21.6714V21.2647C45.1932 21.2552 45.0724 21.252 44.939 21.2456C44.8055 21.2424 44.6753 21.2393 44.5418 21.2393C44.1764 21.2393 43.9158 21.306 43.757 21.4363C43.6235 21.5443 43.5568 21.6905 43.5568 21.8811C43.5568 22.1194 43.6362 22.2942 43.7919 22.399C43.9508 22.5071 44.1414 22.5579 44.3639 22.5579C44.5895 22.5579 44.7738 22.5261 44.9167 22.4594C45.0693 22.3959 45.2027 22.3132 45.3266 22.2147Z" fill="#4C5055"/>
<path d="M50.5662 23.562C49.8735 23.562 49.3683 23.4159 49.0538 23.1235C48.736 22.8312 48.5771 22.3673 48.5771 21.735C48.5771 21.5698 48.5803 21.3791 48.5835 21.1599C48.5867 20.9406 48.593 20.7118 48.5962 20.4672C48.5994 20.2257 48.6057 19.9779 48.6089 19.7268C48.6121 19.4758 48.6153 19.2343 48.6153 19.0055H47.8368C47.697 19.0055 47.6271 18.9388 47.6271 18.8085C47.6271 18.7577 47.6271 18.7132 47.6271 18.6719C47.6271 18.6306 47.6303 18.5798 47.6398 18.5226C47.6493 18.44 47.6684 18.3732 47.7002 18.3256C47.7319 18.2779 47.7955 18.2112 47.8845 18.1286C48.1164 17.9316 48.3611 17.7123 48.6184 17.474C48.8758 17.2357 49.1205 17.0101 49.3397 16.794C49.4319 16.7019 49.5081 16.6415 49.5749 16.6097C49.6416 16.578 49.7274 16.5589 49.8354 16.5589H49.9848C50.1341 16.5589 50.2072 16.632 50.2072 16.7813V17.9061C50.3629 17.9061 50.5281 17.9061 50.7029 17.9061C50.8776 17.9061 51.0397 17.903 51.1922 17.8998C51.3447 17.8966 51.4782 17.8934 51.5926 17.8934C51.7069 17.8934 51.7927 17.8934 51.8531 17.8934C51.9516 17.8934 52.0215 17.9125 52.0628 17.9475C52.1041 17.9856 52.1232 18.0523 52.1232 18.1508C52.1232 18.1921 52.1232 18.243 52.1232 18.3002C52.1232 18.3573 52.12 18.4336 52.1105 18.5226C52.0946 18.7132 52.0374 18.8403 51.9389 18.9102C51.8404 18.9801 51.6974 19.0151 51.5068 19.0151C51.3415 19.0151 51.1445 19.0119 50.9126 19.0087C50.6806 19.0055 50.4487 19.0024 50.2072 19.0024V21.3505C50.2072 21.7127 50.2739 21.9765 50.4042 22.1417C50.5376 22.3069 50.7537 22.3895 51.0587 22.3895C51.2875 22.3895 51.5004 22.3641 51.6879 22.3165C51.7197 22.3069 51.7546 22.3006 51.7927 22.291C51.8309 22.2815 51.869 22.2783 51.9103 22.2783C51.9929 22.2783 52.0533 22.3069 52.0946 22.3641C52.1359 22.4213 52.155 22.4976 52.155 22.5866C52.155 22.9011 52.012 23.1394 51.7292 23.3078C51.4496 23.4762 51.0587 23.562 50.5662 23.562Z" fill="#4C5055"/>
<path d="M55.4276 17.7187C56.2855 17.7187 56.9592 17.9601 57.4453 18.4431C57.9315 18.9261 58.1761 19.6506 58.1761 20.6165C58.1761 21.1027 58.1094 21.5316 57.9728 21.897C57.8361 22.2656 57.6455 22.5706 57.3976 22.8185C57.1498 23.0663 56.8543 23.2506 56.5048 23.3745C56.1584 23.4985 55.7708 23.5588 55.3418 23.5588C54.468 23.5588 53.7817 23.3046 53.286 22.7962C52.7903 22.2879 52.5425 21.5602 52.5425 20.6102C52.5425 20.1399 52.6156 19.7236 52.7586 19.3646C52.9015 19.0055 53.1017 18.7037 53.3591 18.4558C53.6165 18.208 53.9183 18.0237 54.271 17.8998C54.6205 17.7822 55.005 17.7187 55.4276 17.7187ZM55.4626 22.488C55.8057 22.488 56.0568 22.3578 56.2125 22.1004C56.3682 21.8398 56.4444 21.4395 56.4444 20.8961C56.4444 20.2225 56.3682 19.7078 56.2125 19.3582C56.0568 19.0087 55.7708 18.8339 55.3514 18.8339C54.9987 18.8339 54.7318 18.9642 54.5475 19.2248C54.3632 19.4853 54.271 19.8603 54.271 20.356C54.271 20.6705 54.2901 20.9565 54.3314 21.2202C54.3727 21.484 54.4394 21.7096 54.5348 21.9002C54.6301 22.0909 54.7508 22.237 54.9033 22.3387C55.0559 22.4372 55.2401 22.488 55.4626 22.488Z" fill="#4C5055"/>
<path d="M60.8802 24.725C60.8802 24.8489 60.8834 24.9664 60.8866 25.084C60.8898 25.1984 60.893 25.2905 60.893 25.3573C60.893 25.4494 60.8739 25.5066 60.8326 25.5352C60.7913 25.5638 60.7214 25.5861 60.6229 25.6019C60.5498 25.6178 60.4672 25.6274 60.3814 25.6274C60.2956 25.6274 60.2066 25.6274 60.1145 25.6274C60.0478 25.6274 59.9715 25.6274 59.8857 25.6274C59.7999 25.6274 59.7109 25.6178 59.6188 25.6019C59.4631 25.5765 59.3519 25.5257 59.2915 25.4462C59.2311 25.3668 59.1994 25.2206 59.1994 25.0078V19.6696C59.1994 19.3233 59.1962 19.0182 59.1867 18.7545C59.1771 18.4908 59.174 18.2779 59.174 18.1127C59.174 17.9474 59.2597 17.8616 59.4345 17.8521C59.5171 17.8426 59.5934 17.8394 59.6633 17.8394C59.7332 17.8394 59.7967 17.8394 59.8539 17.8394C59.9207 17.8394 59.9906 17.8394 60.07 17.8394C60.1494 17.8394 60.2193 17.8426 60.2861 17.8521C60.3846 17.8616 60.464 17.8871 60.5212 17.9315C60.5784 17.976 60.6229 18.0586 60.6578 18.173L60.7087 18.37H60.7341C60.9406 18.1794 61.1916 18.0269 61.484 17.9061C61.7763 17.7854 62.0909 17.7282 62.4213 17.7282C62.809 17.7282 63.1426 17.8013 63.4254 17.9506C63.705 18.0999 63.937 18.2969 64.1117 18.5511C64.2897 18.8022 64.4231 19.0977 64.5089 19.4345C64.5947 19.7713 64.6392 20.1272 64.6392 20.4958C64.6392 20.8675 64.5947 21.2361 64.5026 21.6015C64.4104 21.9669 64.2706 22.2974 64.0736 22.5897C63.8766 22.882 63.6288 23.1172 63.3174 23.2951C63.006 23.473 62.6279 23.562 62.183 23.562C61.9193 23.562 61.6778 23.5334 61.4585 23.4762C61.2393 23.419 61.0423 23.3428 60.8707 23.2538C60.8802 23.3682 60.8834 23.4857 60.8834 23.6065C60.8834 23.7272 60.8834 23.8384 60.8834 23.9465V24.725H60.8802ZM60.8548 19.3233C60.8644 19.4059 60.8675 19.5171 60.8739 19.6569C60.8771 19.7967 60.8802 19.9492 60.8802 20.1145V22.2402C61.144 22.3482 61.4427 22.4022 61.7826 22.4022C62.1957 22.4022 62.4849 22.2529 62.6533 21.9574C62.8217 21.6619 62.9075 21.217 62.9075 20.6229C62.9075 20.0287 62.8153 19.6092 62.6342 19.3614C62.4531 19.1136 62.2021 18.9896 61.8811 18.9896C61.6746 18.9896 61.484 19.0214 61.306 19.0818C61.1281 19.1422 60.9787 19.2248 60.8548 19.3233Z" fill="#4C5055"/>
<path d="M66.5138 17.1118C66.1833 17.1118 65.945 17.0387 65.7988 16.8957C65.6495 16.7527 65.5764 16.5367 65.5764 16.2475C65.5764 15.6788 65.9005 15.396 66.5519 15.396H66.6027C66.9332 15.396 67.1683 15.469 67.3145 15.612C67.4575 15.755 67.5306 15.9679 67.5306 16.2475C67.5306 16.8226 67.2096 17.1118 66.5678 17.1118H66.5138V17.1118ZM67.378 22.5484C67.378 22.6724 67.3812 22.7899 67.3844 22.9075C67.3876 23.0219 67.3908 23.114 67.3908 23.1808C67.3908 23.2729 67.3717 23.3301 67.3304 23.3587C67.2891 23.3873 67.2192 23.4095 67.1207 23.4254C67.0476 23.4413 66.965 23.4508 66.8792 23.4508C66.7934 23.4508 66.7044 23.4508 66.6123 23.4508C66.5455 23.4508 66.4693 23.4508 66.3835 23.4508C66.2977 23.4508 66.2087 23.4413 66.1166 23.4254C65.9609 23.4 65.8497 23.3492 65.7893 23.2697C65.7289 23.1903 65.6972 23.0441 65.6972 22.8312V18.745C65.6972 18.6211 65.694 18.5035 65.6908 18.386C65.6876 18.2716 65.6844 18.1794 65.6844 18.1127C65.6844 18.0206 65.7035 17.9634 65.7448 17.9348C65.7861 17.9062 65.856 17.8839 65.9545 17.868C66.0276 17.8521 66.1102 17.8426 66.196 17.8426C66.2818 17.8426 66.3708 17.8426 66.4629 17.8426C66.5297 17.8426 66.6059 17.8426 66.6917 17.8426C66.7775 17.8426 66.8665 17.8521 66.9586 17.868C67.1143 17.8935 67.2255 17.9443 67.2859 18.0237C67.3463 18.1032 67.378 18.2493 67.378 18.4622V22.5484Z" fill="#4C5055"/>
<path d="M70.5905 18.942C70.3586 18.942 70.1298 18.9706 69.8979 19.0277C69.6659 19.0849 69.4625 19.1548 69.2814 19.2375C69.1829 19.2883 69.0971 19.3105 69.0209 19.3105C68.9224 19.3105 68.8398 19.2692 68.773 19.1866C68.7063 19.104 68.6745 18.996 68.6745 18.8657C68.6745 18.6878 68.7158 18.5384 68.7985 18.4209C68.8811 18.3033 69.0113 18.1953 69.1925 18.0968C69.6214 17.8616 70.1934 17.7409 70.9083 17.7409C71.6995 17.7409 72.2841 17.9188 72.6686 18.2715C73.0531 18.6242 73.2437 19.193 73.2437 19.9715C73.2437 20.3178 73.2406 20.6578 73.2374 20.9946C73.2342 21.3314 73.231 21.6269 73.231 21.8811C73.231 22.1099 73.2755 22.2783 73.3676 22.3863C73.4598 22.4944 73.5996 22.5674 73.7871 22.6088C73.8602 22.6246 73.9142 22.6501 73.9491 22.6818C73.9809 22.7136 74 22.7772 74 22.8661C74 23.0472 73.9015 23.2061 73.7108 23.3459C73.517 23.4857 73.2628 23.5556 72.9514 23.5556C72.6464 23.5556 72.4081 23.5016 72.2396 23.3968C72.0712 23.2887 71.9283 23.1426 71.8139 22.9519C71.6423 23.1426 71.4326 23.2887 71.1911 23.3968C70.9496 23.5048 70.67 23.5556 70.3586 23.5556C69.6913 23.5556 69.1956 23.3904 68.8684 23.0631C68.5443 22.7327 68.379 22.3228 68.379 21.8271C68.379 21.2424 68.6014 20.823 69.0463 20.5656C69.2369 20.4576 69.4594 20.3813 69.7136 20.3369C69.9678 20.2924 70.2696 20.2701 70.616 20.2701C70.7971 20.2701 70.9814 20.2733 71.1657 20.2828C71.35 20.2924 71.5088 20.2987 71.6423 20.3083V20.0255C71.6423 19.6378 71.5533 19.3614 71.3754 19.193C71.1974 19.0246 70.9369 18.942 70.5905 18.942ZM71.6677 22.2147C71.6582 22.148 71.6518 22.0749 71.6486 21.9923C71.6455 21.9097 71.6423 21.8017 71.6423 21.6714V21.2647C71.5342 21.2552 71.4135 21.252 71.2801 21.2456C71.1466 21.2424 71.0163 21.2393 70.8829 21.2393C70.5175 21.2393 70.2569 21.306 70.098 21.4363C69.9646 21.5443 69.8979 21.6905 69.8979 21.8811C69.8979 22.1194 69.9773 22.2942 70.133 22.399C70.2919 22.5071 70.4825 22.5579 70.7049 22.5579C70.9305 22.5579 71.1148 22.5261 71.2578 22.4594C71.4072 22.3959 71.5406 22.3132 71.6677 22.2147Z" fill="#4C5055"/>
<path d="M12.0024 2.29949C12.2077 1.41032 11.7088 0.535868 10.888 0.346343C10.0672 0.156817 9.23541 0.723992 9.03009 1.61316C8.82477 2.50233 9.32369 3.37679 10.1445 3.56631C10.9652 3.75584 11.797 3.18866 12.0024 2.29949Z" fill="#C51F41"/>
<path d="M23.5291 2.29602C23.7343 1.40685 23.2353 0.532458 22.4145 0.343017C21.5937 0.153575 20.762 0.720818 20.5568 1.60999C20.3516 2.49916 20.8505 3.37354 21.6713 3.56298C22.4921 3.75243 23.3238 3.18518 23.5291 2.29602Z" fill="#C51F41"/>
<path d="M7.49878 12.8953C9.30993 15.5008 11.5659 16.8671 15.0611 16.8671C18.9377 16.8671 21.7656 15.1195 23.4179 12.7999C24.4664 13.3719 24.816 13.9756 24.816 14.6746C24.816 16.6447 21.1619 19.8221 15.6013 19.8221C10.8033 19.8221 7.49878 17.0895 6.54554 14.5793C6.22779 13.6896 6.73618 12.927 7.49878 12.8953Z" fill="#C51F41"/>
<path d="M47.6938 12.1012C47.6938 13.7535 46.2321 15.1834 44.4527 15.1834C42.5145 15.1834 41.4341 14.0077 41.4341 12.832C41.4341 11.6564 42.2921 10.8302 43.3724 11.2433C43.1182 11.4339 43.0547 11.6564 43.0547 11.8788C43.0547 12.1965 43.3089 12.6414 43.849 12.6414C44.2939 12.6414 44.7069 12.2601 44.7069 11.5928C44.7069 10.6078 43.5313 9.59101 42.7687 8.32002C42.6416 9.01907 42.3556 9.65456 41.9425 10.2583C40.9575 11.6246 39.5594 12.7049 38.1296 12.7049C37.4305 12.7049 36.6362 12.1648 36.6362 11.2115C36.6362 11.1162 36.6362 10.9891 36.668 10.8938C35.7783 11.9741 34.6662 12.7367 33.5858 12.7367C32.7914 12.7367 32.0606 12.1965 32.0606 11.2433C32.0606 10.0359 33.1727 7.74808 33.1727 6.12757C33.1727 5.80983 33.0774 5.46031 32.8868 5.20611C33.2045 4.79304 33.5858 4.41174 34.3484 4.41174C35.0792 4.41174 35.7783 4.92014 35.7783 5.74628C35.7783 6.92194 34.9839 8.70132 34.9839 9.68634C34.9839 10.0041 35.1745 10.163 35.4605 10.163C36.5409 10.163 37.7483 7.62098 37.7483 6.06402C37.7483 5.74628 37.653 5.36498 37.4623 5.07901C37.7801 4.66594 38.2567 4.34819 38.9239 4.34819C39.5594 4.34819 40.2903 4.85659 40.2903 5.61918C40.2903 6.89016 39.5594 8.86019 39.5594 9.65456C39.5594 9.94053 39.7183 10.1312 40.0678 10.1312C40.9893 10.1312 42.1967 8.03405 42.1967 6.28645V6.25467C42.1967 4.82481 43.3089 3.99867 44.3892 3.99867C45.0247 3.99867 45.4378 4.28464 45.6284 4.57062C44.9929 4.57062 44.7069 5.17433 44.7069 5.8416C44.6434 8.0976 47.6938 9.30504 47.6938 12.1012ZM9.75482 4.34819C9.08755 4.34819 8.61093 4.66594 8.26141 5.14256C8.48383 5.42853 8.61093 5.77805 8.61093 6.31822C8.61093 7.43033 7.49882 10.2583 7.49882 11.1797C7.49882 12.1012 8.29318 12.6732 8.99223 12.6732C9.59595 12.6732 10.3585 12.2919 10.7716 11.6246C10.4856 11.3068 10.295 10.7667 10.295 10.163C10.295 9.24149 11.1211 6.95371 11.1211 5.68273C11.1211 4.92014 10.4856 4.34819 9.75482 4.34819ZM21.289 4.34819C20.6218 4.34819 20.1451 4.66594 19.7956 5.14256C20.018 5.42853 20.1451 5.77805 20.1451 6.31822C20.1451 7.43033 19.033 10.2583 19.033 11.1797C19.033 12.1012 19.8274 12.6732 20.5264 12.6732C21.1301 12.6732 21.8927 12.2919 22.3058 11.6246C22.0198 11.3068 21.8292 10.7667 21.8292 10.163C21.8292 9.24149 22.6553 6.95371 22.6553 5.68273C22.6553 4.92014 22.0198 4.34819 21.289 4.34819ZM31.6476 7.62098C31.6476 10.2583 29.4869 12.6732 26.7543 12.6732C24.8478 12.6732 23.1319 11.6564 23.1319 9.40036C23.1319 6.76307 25.2926 4.34819 28.0252 4.34819C29.9317 4.34819 31.6476 5.36498 31.6476 7.62098ZM28.9149 8.66955C29.1374 7.30324 28.7243 6.19112 27.8981 6.06402C27.072 5.90515 26.1188 6.95371 25.8963 8.32002C25.6739 9.65456 26.1505 10.7984 26.9767 10.9573C27.8028 11.0844 28.6607 10.0359 28.9149 8.66955ZM16.3957 7.27146C16.5864 7.55743 16.9359 7.74808 17.4443 7.74808C18.1751 7.74808 18.747 7.04904 18.747 6.03225C18.747 5.17433 17.9845 4.31642 16.5228 4.31642C13.9491 4.31642 11.5977 6.79484 11.5977 9.46391C11.5977 11.3704 12.837 12.6414 14.9023 12.6414C16.8723 12.6414 18.334 11.4022 18.334 10.1947C18.334 9.87698 18.0798 9.65456 17.6667 9.59101C17.2219 10.2901 16.491 10.6396 15.8238 10.6396C14.9976 10.6396 14.2986 9.87698 14.2986 8.86019C14.2986 7.52566 15.3472 6.03225 16.2368 6.03225C16.5864 6.03225 16.7452 6.25467 16.7452 6.57242C16.7452 6.85839 16.6499 7.08081 16.3957 7.27146ZM5.97363 9.36859C5.59234 9.81343 4.54377 10.0359 2.92327 9.84521C4.06715 6.95372 4.86152 4.18932 4.86152 2.15574C4.86152 1.01185 4.28958 0.281036 3.24101 0.281036C2.60552 0.281036 1.97003 0.535234 1.49341 1.23428C1.81115 1.5838 1.90648 2.21929 1.90648 2.79123C1.90648 6.85839 0 9.71811 0 11.3704C0 12.0694 0.41307 12.419 0.826141 12.6732C1.14389 12.419 1.65228 12.2601 2.03358 12.2601C2.89149 12.2601 4.19425 12.832 5.59234 12.8003C6.48203 12.8003 6.95865 11.8788 6.92687 11.1797C6.95865 10.5443 6.60913 9.81343 5.97363 9.36859Z" fill="#4C5055"/>
</svg>
