<svg width="36" height="36" viewBox="0 0 36 36" fill="none" xmlns="http://www.w3.org/2000/svg">
<path d="M22.2776 18.5917C22.2382 18.5129 22.1857 18.4604 22.1069 18.4735C21.5163 18.526 20.6368 17.6991 20.5187 17.5809C20.4924 17.8566 20.3874 18.106 20.1905 18.3029L20.1774 18.316C20.138 18.3554 20.0986 18.3685 20.0593 18.3948C20.3743 18.6573 21.0175 19.2348 21.0437 19.7205C21.0437 19.7993 21.1094 19.8518 21.1881 19.878C21.3062 19.9174 21.6607 19.8649 21.7919 19.5499C21.8182 19.4842 21.8182 19.4055 21.8182 19.3136C21.8969 19.3136 21.9757 19.2873 22.0413 19.2611C22.3301 19.0773 22.3301 18.7098 22.2776 18.5917Z" fill="#4B4F54"/>
<path d="M20.0724 17.9879C20.4006 17.6597 20.4399 17.1478 20.2037 16.754C20.0724 16.5309 19.9543 16.3077 19.8493 16.0714C19.613 15.5333 19.4161 14.982 19.193 14.4438C18.8911 13.7087 18.5104 13.0393 17.9197 12.488C17.8016 12.383 17.6835 12.278 17.5653 12.1861C17.0009 11.7661 16.2921 11.5561 15.5308 11.6742C14.1656 11.8711 13.1418 13.0918 13.1943 14.4832C13.2074 14.7851 13.2599 15.0607 13.3518 15.3233C13.3518 15.3233 13.365 15.3758 13.4175 15.4808C13.5618 15.822 13.785 16.1371 14.0475 16.3865C14.4544 16.7934 15.0845 17.2265 16.0296 17.4234C16.1083 17.4497 16.1871 17.4628 16.2658 17.4891C16.8171 17.6203 17.3684 17.6991 17.9197 17.791C18.3791 17.8828 18.8386 17.9879 19.2717 18.1585C19.5342 18.2635 19.8493 18.211 20.0724 17.9879C20.0724 18.001 20.0724 17.9879 20.0724 17.9879Z" fill="#D11243"/>
<path d="M10.8578 28.7644C12.0392 28.3838 14.7038 27.6618 17.9985 27.6618C20.0461 27.6618 22.3563 27.9375 24.6928 28.7513C24.7978 28.7907 24.8897 28.8038 24.9947 28.8038C25.2966 28.8038 25.5854 28.6463 25.756 28.3838L27.9874 24.8922C28.3025 24.3934 28.0662 23.724 27.5149 23.5402C24.194 22.3982 20.9518 22.0045 18.0641 22.0045C13.4962 22.0045 9.79462 22.9889 8.02259 23.5533C7.44504 23.7371 7.20877 24.4197 7.53692 24.9185L9.80775 28.3969C9.97839 28.6594 10.2672 28.8038 10.5691 28.8038C10.6609 28.8169 10.766 28.8038 10.8578 28.7644Z" fill="#4B4F54"/>
<path d="M7.68128 22.5295C8.2457 22.3457 9.00702 22.1226 9.89959 21.9126C8.94139 20.193 8.18007 18.316 7.60252 16.3733C7.18249 14.9295 6.84121 13.4593 6.60494 11.963L6.51305 11.3985L6.47367 11.1098C6.46055 11.031 6.46055 11.0048 6.47367 10.9523C6.4868 10.8604 6.5393 10.7685 6.60494 10.7029C6.64431 10.6766 6.65744 10.6635 6.7362 10.6372L7.02497 10.5585C7.78629 10.3747 8.53448 10.1384 9.25641 9.86278C12.1835 8.79957 14.8219 7.1588 17.2502 5.28176C17.5653 4.92736 18.1166 4.97986 18.471 5.25551C20.9518 7.05379 23.577 8.70768 26.4779 9.79715C27.213 10.0465 27.948 10.2959 28.7225 10.4535L28.9981 10.5191C29.0506 10.5322 29.09 10.5585 29.1294 10.5978C29.2081 10.6635 29.2738 10.7685 29.2869 10.8866C29.3 10.9654 29.2606 11.1623 29.2344 11.3592L29.1556 11.9236C28.9194 13.42 28.565 14.9032 28.1449 16.3471C27.5542 18.2898 26.7798 20.1799 25.8085 21.8994C26.5042 22.0832 27.1998 22.2801 27.8693 22.5032C27.948 22.5295 28.0268 22.5689 28.1055 22.6083C30.2188 18.1454 30.8226 13.2887 30.9802 11.136C31.0589 10.0203 30.2976 9.03584 29.2344 8.87832C24.9553 8.23514 20.8074 5.55741 19.2323 4.44169C18.3659 3.83789 17.2371 3.85101 16.397 4.49419C15.0188 5.54429 11.3172 8.0645 6.39492 8.95708C5.35795 9.15397 4.63602 10.1122 4.70165 11.2016C4.84603 13.3412 5.42358 18.1716 7.51064 22.6083C7.57627 22.582 7.61565 22.5558 7.68128 22.5295Z" fill="#D11243"/>
<path d="M17.9985 28.7513C15.9639 28.7513 14.205 29.0269 12.8793 29.342C13.7325 29.9458 14.6776 30.4839 15.7276 30.8777C15.9114 30.9565 16.0952 31.0352 16.2789 31.1009C16.3708 31.1402 16.489 31.1796 16.6333 31.219C16.6465 31.219 16.6727 31.2321 16.6858 31.2453C16.7384 31.2584 16.7777 31.2584 16.8302 31.2715C16.909 31.2978 16.9878 31.3109 17.0665 31.324C17.1584 31.3371 17.2503 31.3634 17.3422 31.3634C17.4078 31.3765 17.4734 31.3765 17.539 31.3765C17.6309 31.3765 17.7097 31.3896 17.8016 31.3896C18.1822 31.3896 18.5498 31.3371 18.9173 31.2321C19.2717 31.1271 19.5999 30.9827 19.9411 30.8515C19.9543 30.8515 19.9674 30.8383 19.9805 30.8383C20.9912 30.4446 21.91 29.9195 22.7501 29.3157C21.2406 28.9482 19.6524 28.7513 17.9985 28.7513Z" fill="#D11243"/>
<path d="M10.5297 29.8933C9.87337 29.8801 9.26957 29.552 8.90204 29.0007L6.61809 25.5354C6.55246 25.4304 6.49996 25.3254 6.46058 25.2204L3.2578 26.6905C2.9034 26.8611 2.91652 27.373 3.28405 27.5174L6.27681 28.1475C6.53934 28.2 6.70997 28.4756 6.63122 28.7382L5.93553 31.2715C5.90928 31.6128 6.26369 31.8622 6.57871 31.7178L10.5297 29.8933Z" fill="#D11243"/>
<path d="M32.7128 27.5306C33.0935 27.3862 33.0935 26.8611 32.7259 26.7036L29.0769 25.1153C29.0244 25.2466 28.9719 25.3647 28.8931 25.4829L26.6617 28.9744C26.3204 29.4995 25.756 29.8276 25.139 29.867L29.4575 31.7309C29.7726 31.8622 30.1138 31.6128 30.0876 31.2715L28.9719 28.8169C28.8406 28.5413 29.0112 28.2131 29.3131 28.1606L32.7128 27.5306Z" fill="#D11243"/>
</svg>
